<svg xmlns="http://www.w3.org/2000/svg" xmlns:xlink="http://www.w3.org/1999/xlink" width="500" zoomAndPan="magnify" viewBox="0 0 375 149.999998" height="200" preserveAspectRatio="xMidYMid meet" version="1.0"><defs><g/><clipPath id="8b117241d1"><path d="M 10.78125 43 L 34 43 L 34 116.460938 L 10.78125 116.460938 Z M 10.78125 43 " clip-rule="nonzero"/></clipPath><clipPath id="6b32d5ee06"><path d="M 127.847656 43.835938 L 151.027344 43.835938 L 151.027344 116.457031 L 127.847656 116.457031 Z M 127.847656 43.835938 " clip-rule="nonzero"/></clipPath><clipPath id="bf04793330"><path d="M 69 27.210938 L 92 27.210938 L 92 52 L 69 52 Z M 69 27.210938 " clip-rule="nonzero"/></clipPath></defs><path fill="#146c94" d="M 58.597656 67.90625 C 56.878906 67.90625 55.277344 68.234375 53.789062 68.886719 C 52.300781 69.539062 51.011719 70.417969 49.921875 71.523438 C 48.828125 72.628906 47.960938 73.925781 47.324219 75.417969 C 46.683594 76.90625 46.363281 78.492188 46.363281 80.167969 C 46.363281 81.84375 46.683594 83.425781 47.324219 84.917969 C 47.960938 86.40625 48.828125 87.707031 49.921875 88.8125 C 51.011719 89.917969 52.300781 90.796875 53.789062 91.449219 C 55.277344 92.101562 56.878906 92.425781 58.597656 92.425781 C 60.292969 92.425781 61.886719 92.101562 63.375 91.449219 C 64.859375 90.796875 66.15625 89.914062 67.261719 88.792969 C 68.363281 87.675781 69.234375 86.378906 69.875 84.898438 C 70.511719 83.421875 70.832031 81.84375 70.832031 80.167969 C 70.832031 78.492188 70.511719 76.914062 69.875 75.433594 C 69.234375 73.957031 68.363281 72.65625 67.261719 71.539062 C 66.15625 70.421875 64.859375 69.539062 63.375 68.886719 C 61.886719 68.234375 60.292969 67.90625 58.597656 67.90625 Z M 78.117188 80.167969 C 78.117188 85.617188 76.210938 90.226562 72.402344 94 C 68.542969 97.816406 63.941406 99.726562 58.597656 99.726562 C 53.207031 99.726562 48.605469 97.816406 44.796875 94 C 40.984375 90.179688 39.082031 85.570312 39.082031 80.167969 C 39.082031 74.765625 40.984375 70.15625 44.796875 66.335938 C 48.605469 62.515625 53.207031 60.605469 58.597656 60.605469 C 63.941406 60.605469 68.542969 62.515625 72.402344 66.335938 C 74.304688 68.246094 75.730469 70.351562 76.667969 72.65625 C 77.609375 74.964844 78.09375 77.464844 78.117188 80.167969 " fill-opacity="1" fill-rule="nonzero"/><path fill="#146c94" d="M 103.210938 67.90625 C 101.492188 67.90625 99.886719 68.234375 98.402344 68.886719 C 96.914062 69.539062 95.625 70.417969 94.53125 71.523438 C 93.4375 72.628906 92.574219 73.925781 91.933594 75.417969 C 91.296875 76.90625 90.976562 78.492188 90.976562 80.167969 C 90.976562 81.84375 91.296875 83.425781 91.933594 84.917969 C 92.574219 86.40625 93.4375 87.707031 94.53125 88.8125 C 95.625 89.917969 96.914062 90.796875 98.402344 91.449219 C 99.886719 92.101562 101.492188 92.425781 103.210938 92.425781 C 104.90625 92.425781 106.496094 92.101562 107.984375 91.449219 C 109.472656 90.796875 110.765625 89.914062 111.871094 88.792969 C 112.976562 87.675781 113.847656 86.378906 114.484375 84.898438 C 115.121094 83.421875 115.445312 81.84375 115.445312 80.167969 C 115.445312 78.492188 115.121094 76.914062 114.484375 75.433594 C 113.847656 73.957031 112.976562 72.65625 111.871094 71.539062 C 110.765625 70.421875 109.472656 69.539062 107.984375 68.886719 C 106.496094 68.234375 104.90625 67.90625 103.210938 67.90625 Z M 122.726562 80.167969 C 122.726562 85.617188 120.820312 90.226562 117.011719 94 C 113.15625 97.816406 108.554688 99.726562 103.210938 99.726562 C 97.820312 99.726562 93.21875 97.816406 89.410156 94 C 85.597656 90.179688 83.691406 85.570312 83.691406 80.167969 C 83.691406 74.765625 85.597656 70.15625 89.410156 66.335938 C 93.21875 62.515625 97.820312 60.605469 103.210938 60.605469 C 108.554688 60.605469 113.15625 62.515625 117.011719 66.335938 C 118.917969 68.246094 120.339844 70.351562 121.28125 72.65625 C 122.222656 74.964844 122.703125 77.464844 122.726562 80.167969 " fill-opacity="1" fill-rule="nonzero"/><g clip-path="url(#8b117241d1)"><path fill="#211d1d" d="M 30.296875 43.875 C 31.34375 43.875 32.207031 44.230469 32.894531 44.941406 C 33.578125 45.652344 33.921875 46.519531 33.921875 47.542969 C 33.921875 48.59375 33.578125 49.460938 32.894531 50.144531 C 32.207031 50.832031 31.34375 51.175781 30.296875 51.175781 C 27.417969 51.175781 25.976562 52.621094 25.976562 55.507812 L 25.976562 72.203125 C 25.976562 75.558594 25.210938 78.210938 23.675781 80.167969 C 25.210938 82.125 25.976562 84.777344 25.976562 88.128906 L 25.976562 104.828125 C 25.976562 107.714844 27.417969 109.15625 30.296875 109.15625 C 31.34375 109.15625 32.207031 109.5 32.894531 110.1875 C 33.578125 110.875 33.921875 111.742188 33.921875 112.789062 C 33.921875 113.839844 33.578125 114.710938 32.894531 115.410156 C 32.207031 116.109375 31.34375 116.457031 30.296875 116.457031 C 22.5625 116.457031 18.691406 112.582031 18.691406 104.828125 L 18.691406 88.128906 C 18.691406 85.242188 17.261719 83.800781 14.40625 83.800781 C 13.359375 83.800781 12.492188 83.457031 11.808594 82.769531 C 11.121094 82.082031 10.78125 81.214844 10.78125 80.167969 C 10.78125 79.121094 11.121094 78.25 11.808594 77.566406 C 12.492188 76.878906 13.359375 76.535156 14.40625 76.535156 C 17.261719 76.535156 18.691406 75.089844 18.691406 72.203125 L 18.691406 55.507812 C 18.691406 47.753906 22.5625 43.875 30.296875 43.875 " fill-opacity="1" fill-rule="nonzero"/></g><g clip-path="url(#6b32d5ee06)"><path fill="#211d1d" d="M 143.117188 55.507812 L 143.117188 72.203125 C 143.117188 75.089844 144.546875 76.535156 147.402344 76.535156 C 148.449219 76.535156 149.3125 76.878906 150 77.566406 C 150.6875 78.25 151.027344 79.121094 151.027344 80.167969 C 151.027344 81.214844 150.6875 82.082031 150 82.769531 C 149.3125 83.457031 148.449219 83.800781 147.402344 83.800781 C 144.546875 83.800781 143.117188 85.242188 143.117188 88.128906 L 143.117188 104.828125 C 143.117188 112.582031 139.25 116.457031 131.511719 116.457031 C 130.464844 116.457031 129.597656 116.109375 128.914062 115.410156 C 128.230469 114.710938 127.886719 113.839844 127.886719 112.789062 C 127.886719 111.742188 128.230469 110.875 128.914062 110.1875 C 129.597656 109.5 130.464844 109.15625 131.511719 109.15625 C 134.390625 109.15625 135.832031 107.714844 135.832031 104.828125 L 135.832031 88.128906 C 135.832031 84.777344 136.597656 82.125 138.132812 80.167969 C 136.597656 78.210938 135.832031 75.558594 135.832031 72.203125 L 135.832031 55.507812 C 135.832031 52.621094 134.390625 51.175781 131.511719 51.175781 C 130.464844 51.175781 129.597656 50.832031 128.914062 50.144531 C 128.230469 49.460938 127.886719 48.59375 127.886719 47.542969 C 127.886719 46.519531 128.230469 45.652344 128.914062 44.941406 C 129.597656 44.230469 130.464844 43.875 131.511719 43.875 C 139.25 43.875 143.117188 47.753906 143.117188 55.507812 " fill-opacity="1" fill-rule="nonzero"/></g><g clip-path="url(#bf04793330)"><path fill="#211d1d" d="M 91.8125 46.773438 C 91.8125 47.378906 91.695312 47.941406 91.464844 48.464844 C 91.230469 48.992188 90.925781 49.449219 90.542969 49.847656 C 90.15625 50.242188 89.699219 50.550781 89.164062 50.773438 C 88.628906 50.992188 88.074219 51.101562 87.492188 51.101562 C 86.421875 51.101562 85.503906 50.730469 84.738281 49.984375 C 83.972656 49.242188 83.34375 48.328125 82.855469 47.246094 C 82.367188 46.160156 82.011719 45.042969 81.792969 43.890625 C 81.570312 42.738281 81.460938 41.660156 81.460938 40.660156 C 81.460938 36.539062 83.214844 32.371094 86.722656 28.15625 C 87.351562 27.527344 88.0625 27.210938 88.851562 27.210938 C 89.664062 27.210938 90.359375 27.503906 90.941406 28.085938 C 91.523438 28.667969 91.8125 29.367188 91.8125 30.183594 C 91.8125 30.578125 91.730469 30.984375 91.570312 31.402344 C 90.523438 33.964844 90 36.398438 90 38.703125 C 90 40.894531 90.476562 43.011719 91.429688 45.0625 C 91.683594 45.644531 91.8125 46.214844 91.8125 46.773438 Z M 80.347656 46.773438 C 80.347656 47.378906 80.230469 47.941406 80 48.464844 C 79.765625 48.992188 79.457031 49.449219 79.074219 49.847656 C 78.691406 50.242188 78.230469 50.550781 77.699219 50.773438 C 77.164062 50.992188 76.605469 51.101562 76.023438 51.101562 C 74.957031 51.101562 74.039062 50.730469 73.273438 49.984375 C 72.503906 49.242188 71.878906 48.328125 71.390625 47.246094 C 70.902344 46.160156 70.546875 45.042969 70.328125 43.890625 C 70.105469 42.738281 69.996094 41.660156 69.996094 40.660156 C 69.996094 36.539062 71.75 32.371094 75.257812 28.15625 C 75.886719 27.527344 76.59375 27.210938 77.382812 27.210938 C 78.195312 27.210938 78.894531 27.503906 79.476562 28.085938 C 80.054688 28.667969 80.347656 29.367188 80.347656 30.183594 C 80.347656 30.578125 80.265625 30.984375 80.101562 31.402344 C 79.058594 33.964844 78.535156 36.398438 78.535156 38.703125 C 78.535156 40.894531 79.011719 43.011719 79.964844 45.0625 C 80.21875 45.644531 80.347656 46.214844 80.347656 46.773438 " fill-opacity="1" fill-rule="nonzero"/></g><g fill="#146c94" fill-opacity="1"><g transform="translate(160.278143, 92.826449)"><g><path d="M 25.734375 -2.46875 C 24.492188 -1.476562 22.878906 -0.710938 20.890625 -0.171875 C 18.910156 0.367188 16.472656 0.640625 13.578125 0.640625 C 10.691406 0.640625 7.625 0.375 4.375 -0.15625 L 4.375 -33.671875 C 7.664062 -34.191406 10.515625 -34.453125 12.921875 -34.453125 C 15.335938 -34.453125 17.320312 -34.222656 18.875 -33.765625 C 20.425781 -33.304688 21.695312 -32.6875 22.6875 -31.90625 C 24.613281 -30.40625 25.578125 -28.453125 25.578125 -26.046875 C 25.578125 -23.648438 24.707031 -21.664062 22.96875 -20.09375 C 25.03125 -19.445312 26.628906 -18.222656 27.765625 -16.421875 C 28.796875 -14.816406 29.3125 -13.035156 29.3125 -11.078125 C 29.3125 -9.117188 29.023438 -7.441406 28.453125 -6.046875 C 27.890625 -4.660156 26.984375 -3.46875 25.734375 -2.46875 Z M 11.109375 -21.03125 C 11.828125 -20.914062 12.71875 -20.859375 13.78125 -20.859375 C 14.851562 -20.859375 15.726562 -20.992188 16.40625 -21.265625 C 17.09375 -21.546875 17.625 -21.898438 18 -22.328125 C 18.613281 -23.023438 18.921875 -23.988281 18.921875 -25.21875 C 18.921875 -27.8125 17.394531 -29.109375 14.34375 -29.109375 C 13.050781 -29.109375 11.972656 -29.0625 11.109375 -28.96875 Z M 14.875 -15.59375 C 13.445312 -15.59375 12.191406 -15.5 11.109375 -15.3125 L 11.109375 -5.3125 C 12.296875 -5.007812 13.539062 -4.859375 14.84375 -4.859375 C 16.15625 -4.859375 17.304688 -5.015625 18.296875 -5.328125 C 19.285156 -5.640625 20.117188 -6.066406 20.796875 -6.609375 C 22.171875 -7.734375 22.859375 -9.160156 22.859375 -10.890625 C 22.859375 -14.023438 20.195312 -15.59375 14.875 -15.59375 Z M 14.875 -15.59375 "/></g></g></g><g fill="#146c94" fill-opacity="1"><g transform="translate(190.719671, 92.826449)"><g><path d="M 1.296875 8.84375 L 2.96875 7.5 C 5.5 5.445312 7.59375 2.421875 9.25 -1.578125 L 10.421875 -4.40625 L 0.6875 -26.578125 L 7.8125 -26.578125 L 13.90625 -11.21875 L 19.578125 -26.578125 L 26.90625 -26.578125 C 26.019531 -25.359375 24.941406 -23.085938 23.671875 -19.765625 L 19.859375 -10.328125 C 14.753906 1.671875 10.753906 8.828125 7.859375 11.140625 Z M 1.296875 8.84375 "/></g></g></g><g fill="#146c94" fill-opacity="1"><g transform="translate(216.786978, 92.826449)"><g><path d="M 15.53125 -5.59375 C 17.71875 -5.59375 19.21875 -6.160156 20.03125 -7.296875 L 20.234375 -7.296875 L 20.3125 -1.40625 C 19.488281 -0.570312 17.945312 -0.0195312 15.6875 0.25 C 15.082031 0.332031 14.320312 0.375 13.40625 0.375 C 12.5 0.375 11.515625 0.207031 10.453125 -0.125 C 9.398438 -0.46875 8.5 -1.019531 7.75 -1.78125 C 6.207031 -3.351562 5.4375 -5.820312 5.4375 -9.1875 L 5.4375 -20.71875 L 1.609375 -20.71875 C 1.585938 -21.21875 1.578125 -21.71875 1.578125 -22.21875 L 1.578125 -26.140625 C 1.578125 -26.429688 1.585938 -26.578125 1.609375 -26.578125 L 5.4375 -26.578125 L 5.4375 -33.8125 L 11.671875 -33.8125 L 11.671875 -26.578125 L 18.671875 -26.578125 L 18.671875 -20.71875 L 11.671875 -20.71875 L 11.671875 -10.34375 C 11.671875 -7.6875 12.410156 -6.171875 13.890625 -5.796875 C 14.359375 -5.660156 14.90625 -5.59375 15.53125 -5.59375 Z M 15.53125 -5.59375 "/></g></g></g><g fill="#146c94" fill-opacity="1"><g transform="translate(238.530927, 92.826449)"><g><path d="M 2.46875 -13.078125 C 2.46875 -15.054688 2.804688 -16.890625 3.484375 -18.578125 C 4.160156 -20.273438 5.117188 -21.757812 6.359375 -23.03125 C 9.003906 -25.726562 12.460938 -27.078125 16.734375 -27.078125 C 20.347656 -27.078125 23.242188 -25.882812 25.421875 -23.5 C 27.578125 -21.1875 28.65625 -18.285156 28.65625 -14.796875 C 28.65625 -13.460938 28.554688 -12.546875 28.359375 -12.046875 C 26.660156 -11.578125 23.207031 -11.34375 18 -11.34375 L 9.046875 -11.34375 C 9.492188 -9.53125 10.519531 -8.117188 12.125 -7.109375 C 13.738281 -6.097656 15.832031 -5.59375 18.40625 -5.59375 C 21.101562 -5.59375 23.421875 -6.078125 25.359375 -7.046875 C 25.859375 -7.296875 26.238281 -7.53125 26.5 -7.75 C 26.46875 -7.039062 26.425781 -6.3125 26.375 -5.5625 L 26.09375 -1.609375 C 24.800781 -0.722656 22.710938 -0.109375 19.828125 0.234375 C 18.984375 0.328125 18.171875 0.375 17.390625 0.375 C 13.085938 0.375 9.53125 -0.875 6.71875 -3.375 C 3.882812 -5.90625 2.46875 -9.140625 2.46875 -13.078125 Z M 21.890625 -16.28125 C 21.203125 -19.914062 19.21875 -21.734375 15.9375 -21.734375 C 13.363281 -21.734375 11.40625 -20.625 10.0625 -18.40625 C 9.65625 -17.726562 9.34375 -16.984375 9.125 -16.171875 C 9.53125 -16.148438 10.03125 -16.132812 10.625 -16.125 L 12.515625 -16.125 C 13.140625 -16.101562 13.738281 -16.09375 14.3125 -16.09375 L 15.765625 -16.09375 C 16.628906 -16.09375 17.476562 -16.101562 18.3125 -16.125 L 20.390625 -16.203125 C 20.953125 -16.210938 21.453125 -16.238281 21.890625 -16.28125 Z M 21.890625 -16.28125 "/></g></g></g><g fill="#040609" fill-opacity="1"><g transform="translate(268.970389, 92.826449)"><g><path d="M 7.140625 -4.015625 C 5.597656 -5.492188 4.378906 -7.265625 3.484375 -9.328125 C 2.597656 -11.398438 2.15625 -13.664062 2.15625 -16.125 C 2.15625 -18.59375 2.570312 -20.929688 3.40625 -23.140625 C 4.238281 -25.347656 5.425781 -27.289062 6.96875 -28.96875 C 8.507812 -30.644531 10.375 -31.976562 12.5625 -32.96875 C 14.75 -33.957031 17.195312 -34.453125 19.90625 -34.453125 C 24.582031 -34.453125 28.523438 -32.976562 31.734375 -30.03125 C 35.160156 -26.875 36.875 -22.617188 36.875 -17.265625 C 36.875 -12.078125 35.109375 -7.765625 31.578125 -4.328125 C 29.410156 -2.203125 26.828125 -0.742188 23.828125 0.046875 C 22.347656 0.441406 20.617188 0.640625 18.640625 0.640625 C 16.671875 0.640625 14.644531 0.234375 12.5625 -0.578125 C 10.488281 -1.398438 8.679688 -2.546875 7.140625 -4.015625 Z M 9.234375 -16.484375 C 9.234375 -14.898438 9.492188 -13.445312 10.015625 -12.125 C 10.546875 -10.800781 11.273438 -9.664062 12.203125 -8.71875 C 14.191406 -6.71875 16.742188 -5.71875 19.859375 -5.71875 C 22.828125 -5.71875 25.207031 -6.675781 27 -8.59375 C 28.832031 -10.570312 29.75 -13.273438 29.75 -16.703125 C 29.75 -19.921875 28.875 -22.609375 27.125 -24.765625 C 25.25 -27.066406 22.675781 -28.21875 19.40625 -28.21875 C 16.226562 -28.21875 13.707031 -27.050781 11.84375 -24.71875 C 10.101562 -22.53125 9.234375 -19.785156 9.234375 -16.484375 Z M 9.234375 -16.484375 "/></g></g></g><g fill="#040609" fill-opacity="1"><g transform="translate(308.007771, 92.826449)"><g><path d="M 10.34375 -0.53125 L 10.34375 6.9375 C 10.34375 8.394531 10.378906 9.347656 10.453125 9.796875 L 4.125 9.796875 L 4.125 -26.578125 L 10.34375 -26.578125 L 10.34375 -24.921875 C 12.394531 -26.359375 14.363281 -27.078125 16.25 -27.078125 C 18.132812 -27.078125 19.804688 -26.8125 21.265625 -26.28125 C 22.722656 -25.757812 24 -24.953125 25.09375 -23.859375 C 27.519531 -21.460938 28.734375 -18.050781 28.734375 -13.625 C 28.734375 -10.695312 28.046875 -8.078125 26.671875 -5.765625 C 25.503906 -3.816406 23.882812 -2.257812 21.8125 -1.09375 C 19.988281 -0.0625 18.003906 0.453125 15.859375 0.453125 C 13.722656 0.453125 11.882812 0.125 10.34375 -0.53125 Z M 10.34375 -6.9375 C 11.632812 -5.851562 13.304688 -5.3125 15.359375 -5.3125 C 18.710938 -5.3125 20.882812 -6.929688 21.875 -10.171875 C 22.207031 -11.273438 22.375 -12.457031 22.375 -13.71875 C 22.375 -14.976562 22.253906 -15.984375 22.015625 -16.734375 C 21.785156 -17.492188 21.476562 -18.148438 21.09375 -18.703125 C 20.707031 -19.253906 20.273438 -19.710938 19.796875 -20.078125 C 19.328125 -20.441406 18.847656 -20.734375 18.359375 -20.953125 C 17.492188 -21.335938 16.601562 -21.53125 15.6875 -21.53125 C 14.769531 -21.53125 13.816406 -21.316406 12.828125 -20.890625 C 11.847656 -20.472656 11.019531 -19.910156 10.34375 -19.203125 Z M 10.34375 -6.9375 "/></g></g></g><g fill="#040609" fill-opacity="1"><g transform="translate(338.347573, 92.826449)"><g><path d="M 12.6875 0.375 C 7.90625 0.375 4.300781 -0.492188 1.875 -2.234375 C 1.914062 -2.742188 1.96875 -3.320312 2.03125 -3.96875 L 2.265625 -5.796875 C 2.398438 -7.003906 2.484375 -7.753906 2.515625 -8.046875 C 2.546875 -8.347656 2.570312 -8.507812 2.59375 -8.53125 C 2.613281 -8.550781 2.75 -8.410156 3 -8.109375 C 3.25 -7.816406 3.726562 -7.457031 4.4375 -7.03125 C 5.15625 -6.613281 5.984375 -6.242188 6.921875 -5.921875 C 8.929688 -5.222656 11.03125 -4.875 13.21875 -4.875 C 16.15625 -4.875 17.625 -5.851562 17.625 -7.8125 C 17.625 -8.4375 17.34375 -8.898438 16.78125 -9.203125 C 15.78125 -9.710938 14.304688 -10.097656 12.359375 -10.359375 C 10.421875 -10.617188 8.832031 -11.003906 7.59375 -11.515625 C 6.363281 -12.023438 5.359375 -12.632812 4.578125 -13.34375 C 3.140625 -14.6875 2.421875 -16.441406 2.421875 -18.609375 C 2.421875 -21.253906 3.4375 -23.332031 5.46875 -24.84375 C 7.488281 -26.332031 10.273438 -27.078125 13.828125 -27.078125 C 17.359375 -27.078125 20.367188 -26.078125 22.859375 -24.078125 C 22.742188 -23.640625 22.617188 -23.21875 22.484375 -22.8125 C 22.085938 -21.6875 21.796875 -20.878906 21.609375 -20.390625 L 21.03125 -18.890625 C 21 -18.753906 20.972656 -18.6875 20.953125 -18.6875 C 20.921875 -18.6875 20.785156 -18.863281 20.546875 -19.21875 C 19.472656 -20.457031 17.8125 -21.273438 15.5625 -21.671875 C 14.863281 -21.804688 14.148438 -21.875 13.421875 -21.875 C 10.335938 -21.875 8.796875 -20.941406 8.796875 -19.078125 C 8.796875 -18.429688 9.117188 -17.9375 9.765625 -17.59375 C 10.960938 -16.945312 12.609375 -16.472656 14.703125 -16.171875 C 16.796875 -15.867188 18.382812 -15.457031 19.46875 -14.9375 C 20.5625 -14.414062 21.4375 -13.796875 22.09375 -13.078125 C 23.3125 -11.753906 23.921875 -10 23.921875 -7.8125 C 23.921875 -5.414062 22.96875 -3.472656 21.0625 -1.984375 C 19.050781 -0.410156 16.257812 0.375 12.6875 0.375 Z M 12.6875 0.375 "/></g></g></g></svg>