<svg height="200" preserveAspectRatio="xMidYMid meet" viewBox="0 0 375 149.999998" width="500" xmlns="http://www.w3.org/2000/svg" xmlns:xlink="http://www.w3.org/1999/xlink" zoomAndPan="magnify"><clipPath id="a"><path d="m15 31h23v71.75h-23zm0 0"/></clipPath><clipPath id="b"><path d="m130.8125 31.34375h22.933594v71.40625h-22.933594zm0 0"/></clipPath><path d="m62.308594 55.011719c-1.703125 0-3.289063.320312-4.761719.960937-1.46875.644532-2.746094 1.507813-3.824219 2.59375-1.082031 1.089844-1.9375 2.363282-2.570312 3.828125-.632813 1.46875-.949219 3.023438-.949219 4.671875 0 1.648438.316406 3.207032.949219 4.671875.632812 1.464844 1.488281 2.742188 2.570312 3.828125 1.078125 1.089844 2.355469 1.953125 3.824219 2.59375 1.472656.640625 3.058594.960938 4.761719.960938 1.675781 0 3.25-.320313 4.722656-.960938 1.46875-.640625 2.75-1.511718 3.84375-2.609375 1.089844-1.101562 1.953125-2.375 2.585938-3.832031.632812-1.453125.949218-3.003906.949218-4.652344 0-1.648437-.316406-3.199218-.949218-4.652344-.632813-1.453124-1.496094-2.730468-2.585938-3.828124-1.09375-1.101563-2.375-1.96875-3.84375-2.613282-1.472656-.640625-3.046875-.960937-4.722656-.960937zm19.308594 12.054687c0 5.359375-1.886719 9.890625-5.65625 13.601563-3.816407 3.753906-8.367188 5.632812-13.652344 5.632812-5.335938 0-9.886719-1.878906-13.65625-5.632812-3.769532-3.753907-5.65625-8.289063-5.65625-13.601563 0-5.308594 1.886718-9.84375 5.65625-13.597656 3.769531-3.757812 8.320312-5.632812 13.65625-5.632812 5.285156 0 9.835937 1.875 13.652344 5.632812 1.886718 1.875 3.292968 3.949219 4.222656 6.214844.933594 2.265625 1.410156 4.726562 1.433594 7.382812" fill="#146c94"/><path d="m106.441406 55.011719c-1.703125 0-3.289062.320312-4.757812.960937-1.472656.644532-2.75 1.507813-3.828125 2.59375-1.082031 1.089844-1.9375 2.363282-2.570313 3.828125-.632812 1.46875-.945312 3.023438-.945312 4.671875 0 1.648438.3125 3.207032.945312 4.671875.632813 1.464844 1.488282 2.742188 2.570313 3.828125 1.078125 1.089844 2.355469 1.953125 3.828125 2.59375 1.46875.640625 3.054687.960938 4.757812.960938 1.675782 0 3.25-.320313 4.722656-.960938 1.472657-.640625 2.753907-1.511718 3.84375-2.609375 1.09375-1.101562 1.957032-2.375 2.585938-3.832031.632812-1.453125.949219-3.003906.949219-4.652344 0-1.648437-.316407-3.199218-.949219-4.652344-.628906-1.453124-1.492188-2.730468-2.585938-3.828124-1.089843-1.101563-2.371093-1.96875-3.84375-2.613282-1.472656-.640625-3.046874-.960937-4.722656-.960937zm19.308594 12.054687c0 5.359375-1.886719 9.890625-5.65625 13.601563-3.816406 3.753906-8.367188 5.632812-13.652344 5.632812-5.335937 0-9.886718-1.878906-13.652344-5.632812-3.773437-3.753907-5.65625-8.289063-5.65625-13.601563 0-5.308594 1.882813-9.84375 5.65625-13.597656 3.765626-3.757812 8.316407-5.632812 13.652344-5.632812 5.285156 0 9.835938 1.875 13.652344 5.632812 1.886719 1.875 3.292969 3.949219 4.226562 6.214844.929688 2.265625 1.40625 4.726562 1.429688 7.382812" fill="#146c94"/><g clip-path="url(#a)"><path d="m34.308594 31.386719c1.035156 0 1.890625.347656 2.570312 1.046875.675782.699218 1.015625 1.550781 1.015625 2.558594 0 1.03125-.339843 1.882812-1.015625 2.558593-.679687.675781-1.535156 1.011719-2.570312 1.011719-2.851563 0-4.273438 1.421875-4.273438 4.257812v16.417969c0 3.296875-.761718 5.90625-2.277344 7.828125 1.515626 1.925782 2.277344 4.535156 2.277344 7.832032v16.414062c0 2.839844 1.421875 4.257812 4.273438 4.257812 1.035156 0 1.890625.339844 2.570312 1.015626.675782.675781 1.015625 1.527343 1.015625 2.558593 0 1.027344-.339843 1.886719-1.015625 2.574219-.679687.6875-1.535156 1.03125-2.570312 1.03125-7.652344 0-11.480469-3.8125-11.480469-11.4375v-16.414062c0-2.839844-1.414063-4.261719-4.242187-4.261719-1.035157 0-1.890626-.335938-2.570313-1.011719-.675781-.675781-1.015625-1.527344-1.015625-2.558594s.339844-1.882812 1.015625-2.558594c.679687-.675781 1.535156-1.011718 2.570313-1.011718 2.828124 0 4.242187-1.421875 4.242187-4.257813v-16.417969c0-7.625 3.828125-11.433593 11.480469-11.433593" fill="#211d1d"/></g><g clip-path="url(#b)"><path d="m145.921875 42.820312v16.417969c0 2.835938 1.414063 4.257813 4.238281 4.257813 1.035156 0 1.890625.335937 2.570313 1.011718.679687.675782 1.015625 1.527344 1.015625 2.558594s-.335938 1.882813-1.015625 2.558594c-.679688.675781-1.535157 1.011719-2.570313 1.011719-2.824218 0-4.238281 1.421875-4.238281 4.261719v16.414062c0 7.625-3.828125 11.4375-11.484375 11.4375-1.035156 0-1.890625-.34375-2.566406-1.03125-.679688-.6875-1.015625-1.546875-1.015625-2.574219 0-1.03125.335937-1.882812 1.015625-2.558593.675781-.675782 1.53125-1.015626 2.566406-1.015626 2.851562 0 4.277344-1.417968 4.277344-4.257812v-16.414062c0-3.296876.757812-5.90625 2.273437-7.832032-1.515625-1.921875-2.273437-4.53125-2.273437-7.828125v-16.417969c0-2.835937-1.425782-4.257812-4.277344-4.257812-1.035156 0-1.890625-.335938-2.566406-1.011719-.679688-.675781-1.015625-1.527343-1.015625-2.558593 0-1.007813.335937-1.859376 1.015625-2.558594.675781-.699219 1.53125-1.046875 2.566406-1.046875 7.65625 0 11.484375 3.808593 11.484375 11.433593" fill="#211d1d"/></g><path d="m95.167969 34.234375c0 .59375-.117188 1.148437-.347657 1.664063-.230468.515624-.535156.96875-.914062 1.355468-.378906.390625-.832031.691406-1.359375.910156-.53125.21875-1.082031.328126-1.65625.328126-1.058594 0-1.964844-.367188-2.722656-1.101563-.761719-.730469-1.378907-1.628906-1.863281-2.695313-.484376-1.0625-.832032-2.164062-1.050782-3.296874-.21875-1.132813-.328125-2.191407-.328125-3.175782 0-4.050781 1.734375-8.148437 5.207031-12.296875.621094-.617187 1.320313-.925781 2.101563-.925781.804687 0 1.496094.285156 2.070313.859375.574218.570313.863281 1.257813.863281 2.0625 0 .386719-.082031.789063-.242188 1.199219-1.035156 2.519531-1.550781 4.910156-1.550781 7.179687 0 2.152344.46875 4.234375 1.410156 6.25.253906.570313.382813 1.132813.382813 1.683594zm-11.34375 0c0 .59375-.117188 1.148437-.347657 1.664063-.230468.515624-.535156.96875-.914062 1.355468-.378906.390625-.832031.691406-1.359375.910156-.53125.21875-1.082031.328126-1.65625.328126-1.058594 0-1.964844-.367188-2.722656-1.101563-.761719-.730469-1.378907-1.628906-1.863281-2.695313-.484376-1.0625-.832032-2.164062-1.050782-3.296874-.21875-1.132813-.328125-2.191407-.328125-3.175782 0-4.050781 1.734375-8.148437 5.207031-12.296875.621094-.617187 1.320313-.925781 2.101563-.925781.804687 0 1.496094.285156 2.070313.859375.574218.570313.863281 1.257813.863281 2.0625 0 .386719-.082031.789063-.242188 1.199219-1.035156 2.519531-1.554687 4.910156-1.554687 7.179687 0 2.152344.472656 4.234375 1.414062 6.25.253906.570313.382813 1.132813.382813 1.683594" fill="#211d1d"/><path d="m24.546875-2.359375c-1.1875.949219-2.730469 1.683594-4.625 2.203125-1.886719.507812-4.210937.765625-6.96875.765625-2.75 0-5.679687-.25-8.78125-.75v-31.953125c3.132813-.5 5.851563-.75 8.15625-.75 2.300781 0 4.191406.21875 5.671875.65625 1.476562.4375 2.6875 1.027344 3.625 1.765625 1.84375 1.4375 2.765625 3.304687 2.765625 5.59375 0 2.28125-.835937 4.171875-2.5 5.671875 1.96875.617188 3.492187 1.78125 4.578125 3.5.988281 1.53125 1.484375 3.234375 1.484375 5.109375 0 1.867187-.273437 3.460937-.8125 4.78125-.542969 1.324219-1.40625 2.460937-2.59375 3.40625zm-13.953125-17.6875c.675781.117187 1.523438.171875 2.546875.171875 1.019531 0 1.851563-.128906 2.5-.390625.65625-.269531 1.160156-.609375 1.515625-1.015625.582031-.664062.875-1.585938.875-2.765625 0-2.46875-1.453125-3.703125-4.359375-3.703125-1.230469 0-2.257813.046875-3.078125.140625zm3.578125 5.1875c-1.355469 0-2.546875.089844-3.578125.265625v9.53125c1.125.292969 2.304688.4375 3.546875.4375 1.25 0 2.347656-.148438 3.296875-.453125.945312-.300781 1.742188-.707031 2.390625-1.21875 1.3125-1.070313 1.96875-2.429687 1.96875-4.078125 0-2.988281-2.542969-4.484375-7.625-4.484375zm0 0" fill="#146c94" transform="translate(167.134666 82.049203)"/><path d="m1.234375 8.4375 1.59375-1.28125c2.414063-1.960938 4.414063-4.84375 6-8.65625l1.109375-2.6875-9.28125-21.140625h6.78125l5.828125 14.640625 5.390625-14.640625h6.984375c-.835937 1.167969-1.859375 3.335937-3.078125 6.5l-3.625 8.984375c-4.867188 11.4375-8.683594 18.253906-11.453125 20.453125zm0 0" fill="#146c94" transform="translate(196.148252 82.049203)"/><path d="m14.8125-5.328125c2.082031 0 3.507812-.539063 4.28125-1.625h.203125l.0625 5.625c-.792969.792969-2.261719 1.3203125-4.40625 1.578125-.585937.070312-1.308594.109375-2.171875.109375-.867188 0-1.804688-.164063-2.8125-.484375-1.011719-.320312-1.871094-.847656-2.578125-1.578125-1.46875-1.5-2.203125-3.847656-2.203125-7.046875v-11h-3.65625c-.023438-.46875-.03125-.945312-.03125-1.4375v-3.734375c0-.269531.007812-.40625.03125-.40625h3.65625v-6.90625h5.9375v6.90625h6.671875v5.578125h-6.671875v9.890625c0 2.53125.703125 3.976563 2.109375 4.328125.445313.136719.972656.203125 1.578125.203125zm0 0" fill="#146c94" transform="translate(220.992802 82.049203)"/><path d="m2.34375-12.453125c0-1.894531.320312-3.648437.96875-5.265625.65625-1.613281 1.570312-3.023438 2.75-4.234375 2.519531-2.570313 5.816406-3.859375 9.890625-3.859375 3.4375 0 6.195313 1.140625 8.28125 3.421875 2.050781 2.199219 3.078125 4.960937 3.078125 8.28125 0 1.28125-.09375 2.15625-.28125 2.625-1.617188.449219-4.90625.671875-9.875.671875h-8.53125c.425781 1.730469 1.40625 3.078125 2.9375 4.046875 1.53125.960937 3.523438 1.4375 5.984375 1.4375 2.570313 0 4.78125-.460937 6.625-1.390625.476563-.238281.835937-.460938 1.078125-.671875-.03125.679687-.070312 1.371094-.109375 2.078125l-.265625 3.78125c-1.230469.84375-3.21875 1.429688-5.96875 1.75-.8125.09375-1.589844.140625-2.328125.140625-4.105469 0-7.496094-1.191406-10.171875-3.578125-2.710938-2.40625-4.0625-5.484375-4.0625-9.234375zm18.53125-3.0625c-.667969-3.46875-2.558594-5.203125-5.671875-5.203125-2.460937 0-4.328125 1.058594-5.609375 3.171875-.386719.648437-.683594 1.355469-.890625 2.125.382813.023437.859375.039063 1.421875.046875h1.796875c.601563.023438 1.175781.03125 1.71875.03125h1.390625c.820312 0 1.628906-.007812 2.421875-.03125l1.984375-.0625c.53125-.019531 1.007812-.046875 1.4375-.078125zm0 0" fill="#146c94" transform="translate(241.716793 82.049203)"/><g fill="#040609"><path d="m6.8125-3.828125c-1.46875-1.40625-2.632812-3.09375-3.484375-5.0625-.84375-1.976563-1.265625-4.140625-1.265625-6.484375 0-2.351562.394531-4.578125 1.1875-6.671875.789062-2.101563 1.921875-3.953125 3.390625-5.546875 1.46875-1.601562 3.242187-2.878906 5.328125-3.828125 2.082031-.945313 4.421875-1.421875 7.015625-1.421875 4.457031 0 8.210937 1.40625 11.265625 4.21875 3.257812 3 4.890625 7.058594 4.890625 12.171875 0 4.9375-1.679687 9.046875-5.03125 12.328125-2.074219 2.023438-4.539063 3.414062-7.390625 4.171875-1.40625.375-3.054688.5625-4.9375.5625-1.886719 0-3.820312-.386719-5.796875-1.15625-1.980469-.78125-3.703125-1.875-5.171875-3.28125zm1.984375-11.875c0 1.5.25 2.882813.75 4.140625.5 1.261719 1.195313 2.34375 2.09375 3.25 1.882813 1.90625 4.316406 2.859375 7.296875 2.859375 2.820312 0 5.085938-.910156 6.796875-2.734375 1.75-1.894531 2.625-4.472656 2.625-7.734375 0-3.070313-.835937-5.632813-2.5-7.6875-1.792969-2.195313-4.246094-3.296875-7.359375-3.296875-3.023438 0-5.421875 1.117188-7.203125 3.34375-1.667969 2.085938-2.5 4.703125-2.5 7.859375zm0 0" transform="translate(270.72841 82.049203)"/><path d="m9.859375-.515625v7.125c0 1.394531.035156 2.300781.109375 2.71875h-6.046875v-34.65625h5.9375v1.578125c1.957031-1.375 3.832031-2.0625 5.625-2.0625 1.789063 0 3.378906.25 4.765625.75 1.394531.5 2.617188 1.277344 3.671875 2.328125 2.3125 2.28125 3.46875 5.53125 3.46875 9.75 0 2.792969-.65625 5.289063-1.96875 7.484375-1.117187 1.855469-2.65625 3.339844-4.625 4.453125-1.75.9921875-3.640625 1.484375-5.671875 1.484375s-3.789062-.320312-5.265625-.953125zm0-6.09375c1.226563 1.03125 2.820313 1.546875 4.78125 1.546875 3.195313 0 5.265625-1.546875 6.203125-4.640625.320312-1.039063.484375-2.160156.484375-3.359375 0-1.207031-.117187-2.171875-.34375-2.890625-.21875-.726563-.511719-1.351563-.875-1.875-.367187-.519531-.777344-.953125-1.234375-1.296875-.449219-.351562-.90625-.632812-1.375-.84375-.824219-.375-1.671875-.5625-2.546875-.5625s-1.78125.203125-2.71875.609375-1.730469.949219-2.375 1.625zm0 0" transform="translate(307.934638 82.049203)"/><path d="m12.09375.359375c-4.554688 0-7.984375-.832031-10.296875-2.5.03125-.476563.078125-1.023437.140625-1.640625l.21875-1.75c.125-1.144531.203125-1.859375.234375-2.140625.039063-.28125.066406-.429687.078125-.453125.019531-.03125.148438.101562.390625.390625.238281.28125.695313.625 1.375 1.03125.6875.398437 1.472656.75 2.359375 1.0625 1.925781.65625 3.929688.984375 6.015625.984375 2.789063 0 4.1875-.925781 4.1875-2.78125 0-.601562-.265625-1.050781-.796875-1.34375-.960938-.476562-2.367188-.84375-4.21875-1.09375-1.84375-.25-3.355469-.613281-4.53125-1.09375-1.179688-.488281-2.140625-1.070312-2.890625-1.75-1.375-1.28125-2.0625-2.957031-2.0625-5.03125 0-2.519531.972656-4.5 2.921875-5.9375 1.914062-1.414062 4.570312-2.125 7.96875-2.125 3.363281 0 6.234375.953125 8.609375 2.859375-.117187.417969-.242187.824219-.375 1.21875-.367187 1.0625-.636719 1.828125-.8125 2.296875l-.5625 1.421875c-.03125.136719-.058594.203125-.078125.203125-.03125 0-.164062-.171875-.390625-.515625-1.011719-1.175781-2.59375-1.953125-4.75-2.328125-.65625-.125-1.335937-.1875-2.03125-.1875-2.9375 0-4.40625.890625-4.40625 2.671875 0 .605469.304687 1.074219.921875 1.40625 1.144531.605469 2.710938 1.054687 4.703125 1.34375 2 .292969 3.515625.6875 4.546875 1.1875 1.039062.492187 1.875 1.085937 2.5 1.78125 1.164062 1.261719 1.75 2.933594 1.75 5.015625 0 2.273438-.917969 4.121094-2.75 5.546875-1.90625 1.5-4.5625 2.25-7.96875 2.25zm0 0" transform="translate(336.85127 82.049203)"/><path d="m7.449219 0c4.585937 0 5.9375-2.59375 5.9375-5.378906 0-1.546875-.78125-3.445313-2.542969-4.160156 1.519531-1 2.042969-2.617188 2.042969-4.1875 0-2.871094-1.59375-4.964844-5.9375-4.964844h-4.601563c-.328125 0-.496094.167968-.496094.5v17.691406c0 .328125.167969.5.496094.5zm-3.738281-16.867188h3.164062c3.394531 0 4.136719 1.289063 4.136719 3.140626 0 2.03125-.714844 3.359374-3.332031 3.359374h-3.96875zm0 8.191407h3.96875c2.859374 0 3.832031 1.398437 3.832031 3.296875 0 1.765625-.5 3.554687-4.136719 3.554687h-3.664062zm0 0" transform="translate(64.062141 134.821686)"/><path d="m2.871094 0c.316406 0 .488281-.171875.488281-.5v-5.730469c0-2.640625 1.15625-4.015625 2.871094-4.015625.171875 0 .378906.023438.597656.074219.304687.058594.523437-.027344.59375-.34375l.207031-.730469c.074219-.289062-.046875-.523437-.351562-.59375-.351563-.074218-.667969-.121094-.996094-.121094-1.265625 0-2.398438.621094-3.070312 2.066407l-.191407-1.375c-.050781-.316407-.257812-.449219-.550781-.449219h-.351562c-.328126 0-.5.183594-.5.5v10.71875c0 .328125.171874.5.5.5zm0 0" transform="translate(82.098792 134.821686)"/><path d="m2.496094-13.460938c.777344 0 1.347656-.570312 1.347656-1.347656 0-.769531-.570312-1.363281-1.347656-1.363281-.792969 0-1.363282.59375-1.363282 1.363281 0 .777344.570313 1.347656 1.363282 1.347656zm.375 13.460938c.316406 0 .488281-.171875.488281-.5v-10.71875c0-.316406-.171875-.5-.488281-.5h-.753906c-.328126 0-.5.183594-.5.5v10.71875c0 .328125.171874.5.5.5zm0 0" transform="translate(93.639297 134.821686)"/><path d="m6.472656-11.960938c-1.203125 0-2.433594.523438-3.332031 1.582032l-.121094-.890625c-.050781-.316407-.257812-.449219-.550781-.449219h-.351562c-.328126 0-.5.183594-.5.5v10.71875c0 .328125.171874.5.5.5h.753906c.316406 0 .488281-.171875.488281-.5v-6.753906c0-2.019532 1.449219-2.96875 2.945313-2.96875 1.570312 0 2.664062 1.046875 2.664062 2.800781v6.921875c0 .328125.183594.5.5.5h.753906c.316406 0 .5-.171875.5-.5v-6.921875c0-2.726563-1.707031-4.539063-4.25-4.539063zm0 0" transform="translate(102.016884 134.821686)"/><path d="m12.4375-11.71875c-.304688 0-.5.132812-.546875.449219l-.195313 1.351562c-1.121093-1.328125-2.824218-2.042969-4.539062-2.042969-3.371094 0-6.109375 2.738282-6.109375 6.109376 0 3.355468 2.738281 6.09375 6.109375 6.09375 1.640625 0 3.261719-.65625 4.378906-1.859376v1.617188c0 3.140625-1.96875 4.355469-4.113281 4.355469-1.835937 0-3.234375-.839844-4.003906-2.164063-.179688-.292968-.375-.402344-.679688-.246094l-.667969.316407c-.304687.160156-.402343.378906-.246093.660156 1.070312 1.933594 3.078125 3.1875 5.597656 3.1875 3.117187 0 5.890625-1.996094 5.890625-6.109375v-11.21875c0-.316406-.15625-.5-.472656-.5zm-5.28125 10.222656c-2.398438 0-4.371094-1.972656-4.371094-4.355468 0-2.398438 1.972656-4.371094 4.371094-4.371094 2.382812 0 4.355469 1.972656 4.355469 4.371094 0 2.382812-1.972657 4.355468-4.355469 4.355468zm0 0" transform="translate(117.620522 134.821686)"/><path d="m2.496094-13.460938c.777344 0 1.347656-.570312 1.347656-1.347656 0-.769531-.570312-1.363281-1.347656-1.363281-.792969 0-1.363282.59375-1.363282 1.363281 0 .777344.570313 1.347656 1.363282 1.347656zm.375 13.460938c.316406 0 .488281-.171875.488281-.5v-10.71875c0-.316406-.171875-.5-.488281-.5h-.753906c-.328126 0-.5.183594-.5.5v10.71875c0 .328125.171874.5.5.5zm0 0" transform="translate(146.321799 134.821686)"/><path d="m13.289062-18.191406c0-.332032-.183593-.5-.5-.5h-.753906c-.316406 0-.5.167968-.5.5l.027344 8.089844c-1.121094-1.203126-2.738281-1.859376-4.382812-1.859376-3.359376 0-6.109376 2.738282-6.109376 6.109376 0 3.355468 2.75 6.09375 6.109376 6.09375 1.714843 0 3.433593-.714844 4.539062-2.042969l.195312 1.351562c.046876.328125.253907.449219.546876.449219h.351562c.332031 0 .5-.171875.5-.5zm-6.109374 16.695312c-2.398438 0-4.355469-1.972656-4.355469-4.355468 0-2.398438 1.957031-4.371094 4.355469-4.371094 2.398437 0 4.355468 1.972656 4.355468 4.371094 0 2.382812-1.957031 4.355468-4.355468 4.355468zm0 0" transform="translate(154.699389 134.821686)"/><path d="m6.898438-11.960938c-3.210938 0-5.804688 2.492188-5.804688 6.109376 0 3.613281 2.617188 6.09375 5.804688 6.09375 2.117187 0 4.015624-1.144532 5.039062-3.003907.148438-.304687.074219-.5-.195312-.632812l-.703126-.316407c-.269531-.121093-.453124-.050781-.621093.21875-.792969 1.300782-2.117188 1.996094-3.492188 1.996094-2.167969 0-3.933593-1.644531-4.03125-4.164062h9.324219c.21875 0 .460938-.023438.460938-.425782 0-3.382812-2.589844-5.875-5.78125-5.875zm0 1.738282c1.742187 0 3.289062 1.132812 3.808593 2.945312h-7.640625c.523438-1.8125 2.117188-2.945312 3.832032-2.945312zm0 0" transform="translate(173.01584 134.821686)"/><path d="m6.011719-11.960938c-1.230469 0-2.542969.242188-3.871094.691407-.316406.132812-.425781.328125-.316406.65625l.171875.574219c.097656.292968.292968.390624.621094.292968 1.09375-.34375 2.214843-.597656 3.210937-.597656 1.621094 0 2.898437.644531 2.898437 2.542969v1.046875c-1-.195313-1.9375-.304688-2.824218-.304688-2.8125 0-4.855469 1.253906-4.855469 3.894532 0 2.445312 1.738281 3.40625 3.808594 3.40625 1.386719 0 3.03125-.4375 4.050781-1.871094l.160156 1.179687c.058594.328125.253906.449219.558594.449219h.339844c.332031 0 .5-.171875.5-.5v-7.472656c0-2.847656-1.921875-3.988282-4.453125-3.988282zm-.972657 10.71875c-1.253906 0-2.253906-.632812-2.253906-1.996093 0-1.617188 1.425782-2.273438 3.421875-2.273438.765625 0 1.617188.109375 2.519531.277344v.378906c0 2.664063-2.167968 3.613281-3.6875 3.613281zm0 0" transform="translate(190.103619 134.821686)"/><path d="m4.757812.242188c2.140626 0 3.847657-.984376 3.847657-3.261719 0-1.789063-1.570313-2.738281-3.042969-3.539063-1.351562-.742187-2.59375-1.316406-2.59375-2.3125 0-.902344.792969-1.398437 1.933594-1.398437.632812 0 1.351562.15625 2.09375.449219.328125.121093.523437.074218.660156-.242188l.289062-.757812c.136719-.289063.027344-.546876-.289062-.644532-1-.328125-1.949219-.496094-2.800781-.496094-2.042969 0-3.636719 1.214844-3.636719 3.164063 0 1.871094 1.703125 2.738281 3.222656 3.589844 1.191406.667969 2.265625 1.347656 2.265625 2.214843 0 1.167969-.804687 1.59375-1.925781 1.59375-.789062 0-1.738281-.21875-2.664062-.71875-.351563-.171874-.523438-.097656-.644532.195313l-.351562.851563c-.125.265624-.125.472656.277344.621093 1.121093.4726565 2.289062.691407 3.359374.691407zm0 0" transform="translate(205.500453 134.821686)"/><path d="m5.234375.242188c.496094 0 1.019531-.046876 1.617187-.289063.304688-.125.375-.378906.253907-.671875l-.230469-.570312c-.121094-.304688-.316406-.402344-.644531-.28125-.328125.121093-.621094.171874-.851563.171874-.839844 0-1.339844-.597656-1.339844-1.886718v-6.804688h2.542969c.316407 0 .5-.179687.5-.496094v-.632812c0-.316406-.183593-.5-.5-.5h-2.542969v-3.578125c0-.328125-.179687-.5-.496093-.5h-.757813c-.316406 0-.496094.171875-.496094.5v3.578125h-1.023437c-.316406 0-.5.183594-.5.5v.632812c0 .316407.183594.496094.5.496094h1.023437v7.304688c0 1.933594 1.277344 3.027344 2.945313 3.027344zm0 0" transform="translate(228.873431 134.821686)"/><path d="m7.179688.242188c3.359374 0 6.109374-2.480469 6.109374-6.09375 0-3.617188-2.75-6.109376-6.109374-6.109376-3.371094 0-6.109376 2.492188-6.109376 6.109376 0 3.613281 2.738282 6.09375 6.109376 6.09375zm0-1.738282c-2.398438 0-4.367188-1.714844-4.367188-4.355468 0-2.640626 1.96875-4.371094 4.367188-4.371094 2.386718 0 4.355468 1.730468 4.355468 4.371094 0 2.640624-1.96875 4.355468-4.355468 4.355468zm0 0" transform="translate(240.207132 134.821686)"/><path d="m4.492188.242188c.496093 0 1.042968 0 1.617187-.289063.265625-.148437.363281-.378906.242187-.671875l-.21875-.570312c-.121093-.304688-.328124-.402344-.644531-.28125-.328125.121093-.632812.171874-.851562.171874-.851563 0-1.351563-.597656-1.351563-1.886718v-14.90625c0-.332032-.167968-.5-.5-.5h-.742187c-.328125 0-.496094.167968-.496094.5v15.40625c0 1.933594 1.265625 3.027344 2.945313 3.027344zm0 0" transform="translate(268.336651 134.821686)"/><path d="m2.496094-13.460938c.777344 0 1.347656-.570312 1.347656-1.347656 0-.769531-.570312-1.363281-1.347656-1.363281-.792969 0-1.363282.59375-1.363282 1.363281 0 .777344.570313 1.347656 1.363282 1.347656zm.375 13.460938c.316406 0 .488281-.171875.488281-.5v-10.71875c0-.316406-.171875-.5-.488281-.5h-.753906c-.328126 0-.5.183594-.5.5v10.71875c0 .328125.171874.5.5.5zm0 0" transform="translate(278.672817 134.821686)"/><path d="m6.707031-18.644531c-.597656-.242188-1.121093-.289063-1.621093-.289063-1.667969 0-2.945313 1.09375-2.945313 3.027344v4.1875h-.765625c-.328125 0-.5.183594-.5.5v.632812c0 .316407.171875.496094.5.496094h.765625v9.589844c0 .328125.171875.5.5.5h.753906c.316407 0 .488281-.171875.488281-.5v-9.589844h1.800782c.328125 0 .5-.179687.5-.496094v-.632812c0-.316406-.171875-.5-.5-.5h-1.800782v-3.6875c0-1.289062.5-1.886719 1.351563-1.886719.230469 0 .523437.050781.851563.171875.316406.121094.523437.023438.644531-.28125l.21875-.570312c.109375-.292969.023437-.523438-.242188-.671875zm0 0" transform="translate(287.050395 134.821686)"/><path d="m6.898438-11.960938c-3.210938 0-5.804688 2.492188-5.804688 6.109376 0 3.613281 2.617188 6.09375 5.804688 6.09375 2.117187 0 4.015624-1.144532 5.039062-3.003907.148438-.304687.074219-.5-.195312-.632812l-.703126-.316407c-.269531-.121093-.453124-.050781-.621093.21875-.792969 1.300782-2.117188 1.996094-3.492188 1.996094-2.167969 0-3.933593-1.644531-4.03125-4.164062h9.324219c.21875 0 .460938-.023438.460938-.425782 0-3.382812-2.589844-5.875-5.78125-5.875zm0 1.738282c1.742187 0 3.289062 1.132812 3.808593 2.945312h-7.640625c.523438-1.8125 2.117188-2.945312 3.832032-2.945312zm0 0" transform="translate(297.24058 134.821686)"/></g></svg>