<svg xmlns="http://www.w3.org/2000/svg" xmlns:xlink="http://www.w3.org/1999/xlink" width="500" zoomAndPan="magnify" viewBox="0 0 375 150" height="200" preserveAspectRatio="xMidYMid meet" version="1"><defs><clipPath id="521f0516bd"><path d="M 15 9.957031 L 145 9.957031 L 145 139.707031 L 15 139.707031 Z M 15 9.957031" clip-rule="nonzero"/></clipPath><clipPath id="d633e453d2"><path d="M 16 13 L 207.636719 13 L 207.636719 139.707031 L 16 139.707031 Z M 16 13" clip-rule="nonzero"/></clipPath></defs><g clip-path="url(#521f0516bd)"><path fill="#fff" d="M 79.855469 9.957031 C 100.695312 9.957031 119.242188 19.777344 131.125 35.023438 C 126.105469 38.273438 121.195312 41.726562 116.414062 45.355469 C 107.804688 34.714844 94.617188 27.90625 79.855469 27.90625 C 59.753906 27.90625 42.613281 40.496094 35.886719 58.21875 C 30.253906 56.285156 24.484375 54.644531 18.574219 53.273438 C 27.480469 28.039062 51.550781 9.957031 79.855469 9.957031 Z M 144.238281 66.210938 C 144.617188 69.046875 144.804688 71.925781 144.804688 74.867188 C 144.804688 108.738281 118.8125 136.558594 85.660156 139.5 C 87.800781 135.871094 90.128906 132.265625 92.390625 128.789062 C 94.980469 124.855469 97.632812 120.972656 100.371094 117.125 C 112.992188 111 122.460938 99.402344 125.664062 85.40625 C 131.550781 78.816406 137.730469 72.382812 144.238281 66.210938 Z M 68.160156 138.710938 C 37.871094 133.203125 14.894531 106.71875 14.894531 74.863281 C 14.894531 72.945312 14.976562 71.066406 15.152344 69.203125 C 21.847656 74.183594 28.710938 80.648438 34.277344 86.414062 C 37.515625 99.144531 45.9375 109.800781 57.171875 115.992188 C 61.519531 123.230469 65.234375 130.824219 68.160156 138.710938 Z M 68.160156 138.710938" fill-opacity="1" fill-rule="evenodd"/></g><path fill="#fff" d="M 79.855469 41.007812 C 88.914062 41.007812 96.261719 48.347656 96.261719 57.398438 C 96.261719 66.449219 88.914062 73.789062 79.855469 73.789062 C 70.78125 73.789062 63.4375 66.449219 63.4375 57.398438 C 63.4375 48.347656 70.78125 41.007812 79.855469 41.007812 Z M 79.855469 41.007812" fill-opacity="1" fill-rule="evenodd"/><g clip-path="url(#d633e453d2)"><path fill="#fff" d="M 16.449219 60.683594 C 16.449219 60.683594 59.957031 90.140625 76.6875 139.6875 C 76.6875 139.6875 126.925781 48.179688 207.628906 13.949219 C 207.628906 13.949219 141.945312 17.214844 79.53125 91.394531 C 61.3125 75.960938 40.132812 66.15625 16.449219 60.683594 Z M 16.449219 60.683594" fill-opacity="1" fill-rule="evenodd"/></g><g fill="#fff" fill-opacity="1"><g><g><path d="M 28.40625 -26.296875 L 17.84375 -26.296875 L 17.84375 0 L 11.609375 0 L 11.609375 -26.296875 L 1.03125 -26.296875 L 1.03125 -31.171875 L 28.40625 -31.171875 Z M 28.40625 -26.296875" transform="translate(152.859208, 99.374675)"/></g></g></g><g fill="#fff" fill-opacity="1"><g><g><path d="M 16.796875 0 L 16.359375 -3.515625 L 15.171875 -0.953125 C 13.609375 0.0976562 11.625 0.625 9.21875 0.625 C 7.019531 0.625 5.179688 0.0078125 3.703125 -1.21875 C 2.222656 -2.457031 1.484375 -4.175781 1.484375 -6.375 C 1.484375 -9.019531 2.601562 -11.054688 4.84375 -12.484375 C 7.09375 -13.921875 10.382812 -14.640625 14.71875 -14.640625 L 16.265625 -14.640625 L 16.265625 -15.125 C 16.265625 -16.09375 16.234375 -16.847656 16.171875 -17.390625 C 15.960938 -19.316406 14.726562 -20.28125 12.46875 -20.28125 C 9.96875 -20.28125 8.628906 -18.925781 8.453125 -16.21875 L 2.390625 -16.171875 C 2.484375 -18.816406 3.484375 -20.890625 5.390625 -22.390625 C 7.304688 -23.898438 9.738281 -24.65625 12.6875 -24.65625 C 18.6875 -24.65625 21.894531 -22.296875 22.3125 -17.578125 C 22.40625 -16.429688 22.453125 -15.195312 22.453125 -13.875 L 22.453125 -6.09375 C 22.453125 -4.257812 22.601562 -2.226562 22.90625 0 Z M 11.609375 -3.75 C 12.929688 -3.75 14.035156 -4.195312 14.921875 -5.09375 C 15.816406 -6 16.265625 -7.253906 16.265625 -8.859375 L 16.265625 -10.796875 C 10.722656 -11.191406 7.953125 -9.878906 7.953125 -6.859375 C 7.953125 -4.785156 9.171875 -3.75 11.609375 -3.75 Z M 11.609375 -3.75" transform="translate(180.996451, 99.374675)"/></g></g></g><g fill="#fff" fill-opacity="1"><g><g><path d="M 8.90625 -33.203125 L 8.90625 -7.859375 C 8.90625 -6.804688 8.914062 -6.066406 8.9375 -5.640625 C 9 -5.015625 9.222656 -4.59375 9.609375 -4.375 C 10.003906 -4.164062 10.71875 -4.09375 11.75 -4.15625 L 11.75 0.140625 C 10.664062 0.253906 9.382812 0.3125 7.90625 0.3125 C 4.59375 0.3125 2.875 -1.101562 2.75 -3.9375 C 2.695312 -4.65625 2.671875 -5.914062 2.671875 -7.71875 L 2.671875 -33.203125 Z M 8.90625 -33.203125" transform="translate(206.378679, 99.374675)"/></g></g></g><g fill="#fff" fill-opacity="1"><g><g><path d="M 24.65625 -12.515625 C 24.65625 -11.640625 24.628906 -10.929688 24.578125 -10.390625 L 7.5 -10.390625 C 7.863281 -5.960938 9.71875 -3.75 13.0625 -3.75 C 14.414062 -3.75 15.535156 -4.109375 16.421875 -4.828125 C 17.304688 -5.554688 17.851562 -6.550781 18.0625 -7.8125 L 24.296875 -7.8125 C 23.703125 -5.070312 22.382812 -2.976562 20.34375 -1.53125 C 18.3125 -0.09375 15.835938 0.625 12.921875 0.625 C 9.453125 0.625 6.632812 -0.445312 4.46875 -2.59375 C 2.300781 -4.75 1.21875 -7.859375 1.21875 -11.921875 C 1.21875 -15.660156 2.335938 -18.71875 4.578125 -21.09375 C 6.828125 -23.46875 9.773438 -24.65625 13.421875 -24.65625 C 16.941406 -24.65625 19.691406 -23.492188 21.671875 -21.171875 C 23.660156 -18.859375 24.65625 -15.972656 24.65625 -12.515625 Z M 13.140625 -20.28125 C 10.046875 -20.28125 8.222656 -18.335938 7.671875 -14.453125 L 18.25 -14.453125 C 17.820312 -18.335938 16.117188 -20.28125 13.140625 -20.28125 Z M 13.140625 -20.28125" transform="translate(218.97947, 99.374675)"/></g></g></g><g fill="#fff" fill-opacity="1"><g><g><path d="M 25.25 -17.9375 C 25.375 -16.851562 25.4375 -15.390625 25.4375 -13.546875 L 25.4375 0 L 19.203125 0 L 19.203125 -12.6875 C 19.203125 -14.101562 19.171875 -15.21875 19.109375 -16.03125 C 18.898438 -18.863281 17.363281 -20.28125 14.5 -20.28125 C 12.875 -20.28125 11.5625 -19.519531 10.5625 -18 C 9.570312 -16.476562 9.078125 -14.140625 9.078125 -10.984375 L 9.078125 0 L 2.84375 0 L 2.84375 -24.03125 L 9.078125 -24.03125 L 9.078125 -20.140625 L 10.9375 -23 C 12.5 -24.101562 14.425781 -24.65625 16.71875 -24.65625 C 19.25 -24.65625 21.242188 -24.066406 22.703125 -22.890625 C 24.160156 -21.722656 25.007812 -20.070312 25.25 -17.9375 Z M 25.25 -17.9375" transform="translate(245.084323, 99.374675)"/></g></g></g><g fill="#fff" fill-opacity="1"><g><g><path d="M 28.40625 -26.296875 L 17.84375 -26.296875 L 17.84375 0 L 11.609375 0 L 11.609375 -26.296875 L 1.03125 -26.296875 L 1.03125 -31.171875 L 28.40625 -31.171875 Z M 28.40625 -26.296875" transform="translate(273.128732, 99.374675)"/></g></g></g><g fill="#fff" fill-opacity="1"><g><g><path d="M 3.46875 -32.046875 C 4.101562 -32.660156 4.929688 -32.96875 5.953125 -32.96875 C 6.984375 -32.96875 7.8125 -32.660156 8.4375 -32.046875 C 9.070312 -31.429688 9.390625 -30.640625 9.390625 -29.671875 C 9.390625 -28.679688 9.070312 -27.882812 8.4375 -27.28125 C 7.8125 -26.675781 6.984375 -26.375 5.953125 -26.375 C 4.929688 -26.375 4.101562 -26.675781 3.46875 -27.28125 C 2.84375 -27.882812 2.53125 -28.679688 2.53125 -29.671875 C 2.53125 -30.640625 2.84375 -31.429688 3.46875 -32.046875 Z M 9.078125 0 L 2.84375 0 L 2.84375 -24.03125 L 9.078125 -24.03125 Z M 9.078125 0" transform="translate(301.265976, 99.374675)"/></g></g></g><g fill="#fff" fill-opacity="1"><g><g><path d="M 13.234375 -24.65625 C 16.398438 -24.65625 18.957031 -23.789062 20.90625 -22.0625 C 22.863281 -20.332031 23.96875 -18.097656 24.21875 -15.359375 L 18.0625 -15.359375 C 17.519531 -18.640625 15.863281 -20.28125 13.09375 -20.28125 C 11.4375 -20.28125 10.117188 -19.601562 9.140625 -18.25 C 8.160156 -16.894531 7.671875 -14.890625 7.671875 -12.234375 C 7.671875 -9.378906 8.148438 -7.25 9.109375 -5.84375 C 10.078125 -4.445312 11.394531 -3.75 13.0625 -3.75 C 14.289062 -3.75 15.332031 -4.140625 16.1875 -4.921875 C 17.050781 -5.703125 17.632812 -6.832031 17.9375 -8.3125 L 24.171875 -8.3125 C 23.660156 -5.414062 22.382812 -3.203125 20.34375 -1.671875 C 18.3125 -0.140625 15.757812 0.625 12.6875 0.625 C 9.289062 0.625 6.53125 -0.445312 4.40625 -2.59375 C 2.28125 -4.75 1.21875 -7.828125 1.21875 -11.828125 C 1.21875 -15.804688 2.359375 -18.9375 4.640625 -21.21875 C 6.929688 -23.507812 9.796875 -24.65625 13.234375 -24.65625 Z M 13.234375 -24.65625" transform="translate(313.279628, 99.374675)"/></g></g></g><g fill="#fff" fill-opacity="1"><g><g><path d="M 4.515625 -21.15625 C 6.710938 -23.488281 9.769531 -24.65625 13.6875 -24.65625 C 17.601562 -24.65625 20.660156 -23.488281 22.859375 -21.15625 C 25.054688 -18.820312 26.15625 -15.773438 26.15625 -12.015625 C 26.15625 -8.285156 25.054688 -5.242188 22.859375 -2.890625 C 20.660156 -0.546875 17.601562 0.625 13.6875 0.625 C 9.769531 0.625 6.710938 -0.546875 4.515625 -2.890625 C 2.316406 -5.242188 1.21875 -8.285156 1.21875 -12.015625 C 1.21875 -15.773438 2.316406 -18.820312 4.515625 -21.15625 Z M 9.28125 -5.9375 C 10.351562 -4.476562 11.820312 -3.75 13.6875 -3.75 C 15.550781 -3.75 17.015625 -4.476562 18.078125 -5.9375 C 19.148438 -7.394531 19.6875 -9.421875 19.6875 -12.015625 C 19.6875 -14.609375 19.148438 -16.632812 18.078125 -18.09375 C 17.015625 -19.550781 15.550781 -20.28125 13.6875 -20.28125 C 11.820312 -20.28125 10.351562 -19.550781 9.28125 -18.09375 C 8.207031 -16.632812 7.671875 -14.609375 7.671875 -12.015625 C 7.671875 -9.421875 8.207031 -7.394531 9.28125 -5.9375 Z M 9.28125 -5.9375" transform="translate(338.616697, 99.374675)"/></g></g></g></svg>